<svg xmlns="http://www.w3.org/2000/svg" version="1.1" xmlns:xlink="http://www.w3.org/1999/xlink" xmlns:svgjs="http://svgjs.dev/svgjs" width="1440" height="560" preserveAspectRatio="none" viewBox="0 0 1440 560"><g mask="url(&quot;#SvgjsMask2514&quot;)" fill="none"><rect width="1440" height="560" x="0" y="0" fill="rgba(52, 58, 64, 1)"></rect><use xlink:href="#SvgjsG2520" transform="translate(0, 0)" fill="rgba(185, 184, 184, 1)"></use><use xlink:href="#SvgjsG2520" transform="translate(0, 484.00000000000006)" fill="rgba(185, 184, 184, 1)"></use><use xlink:href="#SvgjsG2520" transform="translate(484.00000000000006, 0)" fill="rgba(185, 184, 184, 1)"></use><use xlink:href="#SvgjsG2520" transform="translate(484.00000000000006, 484.00000000000006)" fill="rgba(185, 184, 184, 1)"></use><use xlink:href="#SvgjsG2520" transform="translate(968.0000000000001, 0)" fill="rgba(185, 184, 184, 1)"></use><use xlink:href="#SvgjsG2520" transform="translate(968.0000000000001, 484.00000000000006)" fill="rgba(185, 184, 184, 1)"></use></g><defs><mask id="SvgjsMask2514"><rect width="1440" height="560" fill="#ffffff"></rect></mask><g id="SvgjsG2515"><path d="M2.524 8.637H0.014V7.308h2.51v1.329zM3.656 4.576L1.884 2.804l0.935-0.935 1.772 1.772-0.935 0.935z m0 6.817l0.935 0.935-1.772 1.773-0.934-0.936 1.771-1.772z m4.997-8.884h-1.33V-0.002h1.33v2.511z m-1.33 10.952h1.33v2.51h-1.33v-2.509zM12.344 4.576l-0.96-0.935 1.796-1.772 0.935 0.935-1.772 1.772z m0 6.792l1.771 1.797-0.935 0.936-1.771-1.774 0.936-0.96z m3.643-4.06v1.329h-2.51V7.308h2.509z"></path><path d="M3.702 7.984a4.184 4.184 0 1 0 8.368 0 4.184 4.184 0 1 0-8.368 0"></path></g><g id="SvgjsG2517"><path d="M6.837 0.883c0.002-1.183 1.782-1.183 1.784 0.033v4.953L15.558 10.047v1.826L8.654 9.605V13.307l1.593 1.25V16L7.787 15.242 5.32 16v-1.443l1.584-1.25V9.605L0 11.873V10.047l6.837-4.178V0.883z"></path></g><g id="SvgjsG2518"><path d="M12.16 7.692l-0.293 0.501s-0.053 0.108-0.223 0.108H10.791l-0.487-1.447c0.038-0.007 0.078-0.015 0.105-0.019 0.305-0.055 0.409-0.055 0.636 0.061 0 0 0.971 0.501 1.037 0.539 0.082 0.04 0.133 0.16 0.078 0.256z m-2.332-0.745l0.459 1.354H6.895c-0.074 0-0.152-0.044-0.152-0.16v-0.183c0-0.099 0.042-0.16 0.131-0.203 0.103-0.048 0.718-0.293 1.089-0.391a40.023 40.023 0 0 1 1.865-0.417z m1.789 3.792c0.442-0.07 1.276-0.204 1.755-0.34 0.208-0.053 0.419-0.268 0.48-0.392l1.144-1.744v2.183c0 0.246 0.366 0.246 0.366 0V8.193h0.156c0.438 0 0.438-0.657 0-0.657h-0.156V5.356c0-0.246-0.366-0.246-0.366 0v2.18h-0.106c-0.39-0.038-2.224-0.234-2.578-0.417-0.356-0.187-0.729-0.398-1.077-0.577-0.32-0.16-0.506-0.149-0.853-0.09-0.196 0.038-1.349 0.253-2.467 0.537-1.38 0.349-3.084 1.152-3.084 1.152l-1.948 0.007c-0.446-0.129-0.621-0.963-0.815-1.33L1.577 5.828c-0.036-0.082-0.126-0.107-0.211-0.11l-1.241-0.075c-0.187-0.011-0.116 0.145-0.09 0.235l0.851 3.337c0.089 0.373 0.607 0.729 0.971 0.767l5.013 0.769h0.063l4.685-0.012z" fill-rule="evenodd"></path></g><g id="SvgjsG2519"><path d="M0 10.392a3.585 3.585 0 1 0 7.169 0 3.585 3.585 0 1 0-7.169 0"></path><path d="M7.997 9.975a4.001 4.001 0 1 0 8.003 0 4.001 4.001 0 1 0-8.003 0"></path><path d="M2.655 7.156a5.054 5.054 0 1 0 10.108 0 5.054 5.054 0 1 0-10.108 0"></path><path d="M3.585 7.983H12.5v5.993H3.585z"></path></g><g id="SvgjsG2516"><path d="M12.865 12.36c-3.667 0-6.639-2.973-6.639-6.639 0-2.102 0.978-3.975 2.503-5.192-3.976 0.149-7.153 3.416-7.153 7.428 0 4.106 3.328 7.434 7.435 7.434 2.66 0 4.993-1.399 6.308-3.502a6.601 6.601 0 0 1-2.455 0.471z"></path></g><g id="SvgjsG2520"><use xlink:href="#SvgjsG2515" transform="translate(0, 0) scale(1.1)" fill="rgba(185, 184, 184, 1)"></use><use xlink:href="#SvgjsG2516" transform="translate(0, 48.400000000000006) scale(1.1)" fill="rgba(185, 184, 184, 1)"></use><use xlink:href="#SvgjsG2517" transform="translate(0, 96.80000000000001) scale(1.1)" fill="rgba(185, 184, 184, 1)"></use><use xlink:href="#SvgjsG2518" transform="translate(0, 145.20000000000002) scale(1.1)" fill="rgba(185, 184, 184, 1)"></use><use xlink:href="#SvgjsG2519" transform="translate(0, 193.60000000000002) scale(1.1)" fill="rgba(185, 184, 184, 1)"></use><use xlink:href="#SvgjsG2516" transform="translate(0, 242.00000000000003) scale(1.1)" fill="rgba(185, 184, 184, 1)"></use><use xlink:href="#SvgjsG2519" transform="translate(0, 290.40000000000003) scale(1.1)" fill="rgba(185, 184, 184, 1)"></use><use xlink:href="#SvgjsG2517" transform="translate(0, 338.80000000000007) scale(1.1)" fill="rgba(185, 184, 184, 1)"></use><use xlink:href="#SvgjsG2515" transform="translate(0, 387.20000000000005) scale(1.1)" fill="rgba(185, 184, 184, 1)"></use><use xlink:href="#SvgjsG2517" transform="translate(0, 435.6) scale(1.1)" fill="rgba(185, 184, 184, 1)"></use><use xlink:href="#SvgjsG2517" transform="translate(48.400000000000006, 0) scale(1.1)" fill="rgba(185, 184, 184, 1)"></use><use xlink:href="#SvgjsG2519" transform="translate(48.400000000000006, 48.400000000000006) scale(1.1)" fill="rgba(185, 184, 184, 1)"></use><use xlink:href="#SvgjsG2518" transform="translate(48.400000000000006, 96.80000000000001) scale(1.1)" fill="rgba(185, 184, 184, 1)"></use><use xlink:href="#SvgjsG2519" transform="translate(48.400000000000006, 145.20000000000002) scale(1.1)" fill="rgba(185, 184, 184, 1)"></use><use xlink:href="#SvgjsG2518" transform="translate(48.400000000000006, 193.60000000000002) scale(1.1)" fill="rgba(185, 184, 184, 1)"></use><use xlink:href="#SvgjsG2518" transform="translate(48.400000000000006, 242.00000000000003) scale(1.1)" fill="rgba(185, 184, 184, 1)"></use><use xlink:href="#SvgjsG2516" transform="translate(48.400000000000006, 290.40000000000003) scale(1.1)" fill="rgba(185, 184, 184, 1)"></use><use xlink:href="#SvgjsG2518" transform="translate(48.400000000000006, 338.80000000000007) scale(1.1)" fill="rgba(185, 184, 184, 1)"></use><use xlink:href="#SvgjsG2516" transform="translate(48.400000000000006, 387.20000000000005) scale(1.1)" fill="rgba(185, 184, 184, 1)"></use><use xlink:href="#SvgjsG2517" transform="translate(48.400000000000006, 435.6) scale(1.1)" fill="rgba(185, 184, 184, 1)"></use><use xlink:href="#SvgjsG2518" transform="translate(96.80000000000001, 0) scale(1.1)" fill="rgba(185, 184, 184, 1)"></use><use xlink:href="#SvgjsG2516" transform="translate(96.80000000000001, 48.400000000000006) scale(1.1)" fill="rgba(185, 184, 184, 1)"></use><use xlink:href="#SvgjsG2516" transform="translate(96.80000000000001, 96.80000000000001) scale(1.1)" fill="rgba(185, 184, 184, 1)"></use><use xlink:href="#SvgjsG2517" transform="translate(96.80000000000001, 145.20000000000002) scale(1.1)" fill="rgba(185, 184, 184, 1)"></use><use xlink:href="#SvgjsG2515" transform="translate(96.80000000000001, 193.60000000000002) scale(1.1)" fill="rgba(185, 184, 184, 1)"></use><use xlink:href="#SvgjsG2517" transform="translate(96.80000000000001, 242.00000000000003) scale(1.1)" fill="rgba(185, 184, 184, 1)"></use><use xlink:href="#SvgjsG2516" transform="translate(96.80000000000001, 290.40000000000003) scale(1.1)" fill="rgba(185, 184, 184, 1)"></use><use xlink:href="#SvgjsG2517" transform="translate(96.80000000000001, 338.80000000000007) scale(1.1)" fill="rgba(185, 184, 184, 1)"></use><use xlink:href="#SvgjsG2518" transform="translate(96.80000000000001, 387.20000000000005) scale(1.1)" fill="rgba(185, 184, 184, 1)"></use><use xlink:href="#SvgjsG2515" transform="translate(96.80000000000001, 435.6) scale(1.1)" fill="rgba(185, 184, 184, 1)"></use><use xlink:href="#SvgjsG2519" transform="translate(145.20000000000002, 0) scale(1.1)" fill="rgba(185, 184, 184, 1)"></use><use xlink:href="#SvgjsG2517" transform="translate(145.20000000000002, 48.400000000000006) scale(1.1)" fill="rgba(185, 184, 184, 1)"></use><use xlink:href="#SvgjsG2516" transform="translate(145.20000000000002, 96.80000000000001) scale(1.1)" fill="rgba(185, 184, 184, 1)"></use><use xlink:href="#SvgjsG2515" transform="translate(145.20000000000002, 145.20000000000002) scale(1.1)" fill="rgba(185, 184, 184, 1)"></use><use xlink:href="#SvgjsG2517" transform="translate(145.20000000000002, 193.60000000000002) scale(1.1)" fill="rgba(185, 184, 184, 1)"></use><use xlink:href="#SvgjsG2518" transform="translate(145.20000000000002, 242.00000000000003) scale(1.1)" fill="rgba(185, 184, 184, 1)"></use><use xlink:href="#SvgjsG2515" transform="translate(145.20000000000002, 290.40000000000003) scale(1.1)" fill="rgba(185, 184, 184, 1)"></use><use xlink:href="#SvgjsG2516" transform="translate(145.20000000000002, 338.80000000000007) scale(1.1)" fill="rgba(185, 184, 184, 1)"></use><use xlink:href="#SvgjsG2517" transform="translate(145.20000000000002, 387.20000000000005) scale(1.1)" fill="rgba(185, 184, 184, 1)"></use><use xlink:href="#SvgjsG2515" transform="translate(145.20000000000002, 435.6) scale(1.1)" fill="rgba(185, 184, 184, 1)"></use><use xlink:href="#SvgjsG2515" transform="translate(193.60000000000002, 0) scale(1.1)" fill="rgba(185, 184, 184, 1)"></use><use xlink:href="#SvgjsG2518" transform="translate(193.60000000000002, 48.400000000000006) scale(1.1)" fill="rgba(185, 184, 184, 1)"></use><use xlink:href="#SvgjsG2518" transform="translate(193.60000000000002, 96.80000000000001) scale(1.1)" fill="rgba(185, 184, 184, 1)"></use><use xlink:href="#SvgjsG2518" transform="translate(193.60000000000002, 145.20000000000002) scale(1.1)" fill="rgba(185, 184, 184, 1)"></use><use xlink:href="#SvgjsG2516" transform="translate(193.60000000000002, 193.60000000000002) scale(1.1)" fill="rgba(185, 184, 184, 1)"></use><use xlink:href="#SvgjsG2515" transform="translate(193.60000000000002, 242.00000000000003) scale(1.1)" fill="rgba(185, 184, 184, 1)"></use><use xlink:href="#SvgjsG2515" transform="translate(193.60000000000002, 290.40000000000003) scale(1.1)" fill="rgba(185, 184, 184, 1)"></use><use xlink:href="#SvgjsG2516" transform="translate(193.60000000000002, 338.80000000000007) scale(1.1)" fill="rgba(185, 184, 184, 1)"></use><use xlink:href="#SvgjsG2518" transform="translate(193.60000000000002, 387.20000000000005) scale(1.1)" fill="rgba(185, 184, 184, 1)"></use><use xlink:href="#SvgjsG2515" transform="translate(193.60000000000002, 435.6) scale(1.1)" fill="rgba(185, 184, 184, 1)"></use><use xlink:href="#SvgjsG2518" transform="translate(242.00000000000003, 0) scale(1.1)" fill="rgba(185, 184, 184, 1)"></use><use xlink:href="#SvgjsG2519" transform="translate(242.00000000000003, 48.400000000000006) scale(1.1)" fill="rgba(185, 184, 184, 1)"></use><use xlink:href="#SvgjsG2516" transform="translate(242.00000000000003, 96.80000000000001) scale(1.1)" fill="rgba(185, 184, 184, 1)"></use><use xlink:href="#SvgjsG2518" transform="translate(242.00000000000003, 145.20000000000002) scale(1.1)" fill="rgba(185, 184, 184, 1)"></use><use xlink:href="#SvgjsG2516" transform="translate(242.00000000000003, 193.60000000000002) scale(1.1)" fill="rgba(185, 184, 184, 1)"></use><use xlink:href="#SvgjsG2515" transform="translate(242.00000000000003, 242.00000000000003) scale(1.1)" fill="rgba(185, 184, 184, 1)"></use><use xlink:href="#SvgjsG2517" transform="translate(242.00000000000003, 290.40000000000003) scale(1.1)" fill="rgba(185, 184, 184, 1)"></use><use xlink:href="#SvgjsG2515" transform="translate(242.00000000000003, 338.80000000000007) scale(1.1)" fill="rgba(185, 184, 184, 1)"></use><use xlink:href="#SvgjsG2515" transform="translate(242.00000000000003, 387.20000000000005) scale(1.1)" fill="rgba(185, 184, 184, 1)"></use><use xlink:href="#SvgjsG2517" transform="translate(242.00000000000003, 435.6) scale(1.1)" fill="rgba(185, 184, 184, 1)"></use><use xlink:href="#SvgjsG2517" transform="translate(290.40000000000003, 0) scale(1.1)" fill="rgba(185, 184, 184, 1)"></use><use xlink:href="#SvgjsG2515" transform="translate(290.40000000000003, 48.400000000000006) scale(1.1)" fill="rgba(185, 184, 184, 1)"></use><use xlink:href="#SvgjsG2516" transform="translate(290.40000000000003, 96.80000000000001) scale(1.1)" fill="rgba(185, 184, 184, 1)"></use><use xlink:href="#SvgjsG2519" transform="translate(290.40000000000003, 145.20000000000002) scale(1.1)" fill="rgba(185, 184, 184, 1)"></use><use xlink:href="#SvgjsG2518" transform="translate(290.40000000000003, 193.60000000000002) scale(1.1)" fill="rgba(185, 184, 184, 1)"></use><use xlink:href="#SvgjsG2516" transform="translate(290.40000000000003, 242.00000000000003) scale(1.1)" fill="rgba(185, 184, 184, 1)"></use><use xlink:href="#SvgjsG2518" transform="translate(290.40000000000003, 290.40000000000003) scale(1.1)" fill="rgba(185, 184, 184, 1)"></use><use xlink:href="#SvgjsG2518" transform="translate(290.40000000000003, 338.80000000000007) scale(1.1)" fill="rgba(185, 184, 184, 1)"></use><use xlink:href="#SvgjsG2519" transform="translate(290.40000000000003, 387.20000000000005) scale(1.1)" fill="rgba(185, 184, 184, 1)"></use><use xlink:href="#SvgjsG2519" transform="translate(290.40000000000003, 435.6) scale(1.1)" fill="rgba(185, 184, 184, 1)"></use><use xlink:href="#SvgjsG2517" transform="translate(338.80000000000007, 0) scale(1.1)" fill="rgba(185, 184, 184, 1)"></use><use xlink:href="#SvgjsG2517" transform="translate(338.80000000000007, 48.400000000000006) scale(1.1)" fill="rgba(185, 184, 184, 1)"></use><use xlink:href="#SvgjsG2515" transform="translate(338.80000000000007, 96.80000000000001) scale(1.1)" fill="rgba(185, 184, 184, 1)"></use><use xlink:href="#SvgjsG2517" transform="translate(338.80000000000007, 145.20000000000002) scale(1.1)" fill="rgba(185, 184, 184, 1)"></use><use xlink:href="#SvgjsG2515" transform="translate(338.80000000000007, 193.60000000000002) scale(1.1)" fill="rgba(185, 184, 184, 1)"></use><use xlink:href="#SvgjsG2517" transform="translate(338.80000000000007, 242.00000000000003) scale(1.1)" fill="rgba(185, 184, 184, 1)"></use><use xlink:href="#SvgjsG2516" transform="translate(338.80000000000007, 290.40000000000003) scale(1.1)" fill="rgba(185, 184, 184, 1)"></use><use xlink:href="#SvgjsG2518" transform="translate(338.80000000000007, 338.80000000000007) scale(1.1)" fill="rgba(185, 184, 184, 1)"></use><use xlink:href="#SvgjsG2515" transform="translate(338.80000000000007, 387.20000000000005) scale(1.1)" fill="rgba(185, 184, 184, 1)"></use><use xlink:href="#SvgjsG2516" transform="translate(338.80000000000007, 435.6) scale(1.1)" fill="rgba(185, 184, 184, 1)"></use><use xlink:href="#SvgjsG2516" transform="translate(387.20000000000005, 0) scale(1.1)" fill="rgba(185, 184, 184, 1)"></use><use xlink:href="#SvgjsG2517" transform="translate(387.20000000000005, 48.400000000000006) scale(1.1)" fill="rgba(185, 184, 184, 1)"></use><use xlink:href="#SvgjsG2515" transform="translate(387.20000000000005, 96.80000000000001) scale(1.1)" fill="rgba(185, 184, 184, 1)"></use><use xlink:href="#SvgjsG2519" transform="translate(387.20000000000005, 145.20000000000002) scale(1.1)" fill="rgba(185, 184, 184, 1)"></use><use xlink:href="#SvgjsG2518" transform="translate(387.20000000000005, 193.60000000000002) scale(1.1)" fill="rgba(185, 184, 184, 1)"></use><use xlink:href="#SvgjsG2518" transform="translate(387.20000000000005, 242.00000000000003) scale(1.1)" fill="rgba(185, 184, 184, 1)"></use><use xlink:href="#SvgjsG2516" transform="translate(387.20000000000005, 290.40000000000003) scale(1.1)" fill="rgba(185, 184, 184, 1)"></use><use xlink:href="#SvgjsG2515" transform="translate(387.20000000000005, 338.80000000000007) scale(1.1)" fill="rgba(185, 184, 184, 1)"></use><use xlink:href="#SvgjsG2518" transform="translate(387.20000000000005, 387.20000000000005) scale(1.1)" fill="rgba(185, 184, 184, 1)"></use><use xlink:href="#SvgjsG2517" transform="translate(387.20000000000005, 435.6) scale(1.1)" fill="rgba(185, 184, 184, 1)"></use><use xlink:href="#SvgjsG2515" transform="translate(435.6, 0) scale(1.1)" fill="rgba(185, 184, 184, 1)"></use><use xlink:href="#SvgjsG2518" transform="translate(435.6, 48.400000000000006) scale(1.1)" fill="rgba(185, 184, 184, 1)"></use><use xlink:href="#SvgjsG2516" transform="translate(435.6, 96.80000000000001) scale(1.1)" fill="rgba(185, 184, 184, 1)"></use><use xlink:href="#SvgjsG2519" transform="translate(435.6, 145.20000000000002) scale(1.1)" fill="rgba(185, 184, 184, 1)"></use><use xlink:href="#SvgjsG2519" transform="translate(435.6, 193.60000000000002) scale(1.1)" fill="rgba(185, 184, 184, 1)"></use><use xlink:href="#SvgjsG2519" transform="translate(435.6, 242.00000000000003) scale(1.1)" fill="rgba(185, 184, 184, 1)"></use><use xlink:href="#SvgjsG2516" transform="translate(435.6, 290.40000000000003) scale(1.1)" fill="rgba(185, 184, 184, 1)"></use><use xlink:href="#SvgjsG2518" transform="translate(435.6, 338.80000000000007) scale(1.1)" fill="rgba(185, 184, 184, 1)"></use><use xlink:href="#SvgjsG2519" transform="translate(435.6, 387.20000000000005) scale(1.1)" fill="rgba(185, 184, 184, 1)"></use><use xlink:href="#SvgjsG2518" transform="translate(435.6, 435.6) scale(1.1)" fill="rgba(185, 184, 184, 1)"></use></g></defs></svg>